<?xml version="1.0" standalone="no"?>
<!DOCTYPE svg PUBLIC "-//W3C//DTD SVG 20010904//EN"
 "http://www.w3.org/TR/2001/REC-SVG-20010904/DTD/svg10.dtd">
<svg version="1.0" xmlns="http://www.w3.org/2000/svg"
 width="1280.000000pt" height="945.000000pt" viewBox="0 0 1280.000000 945.000000"
 preserveAspectRatio="xMidYMid meet">
<g transform="translate(0.000000,945.000000) scale(0.100000,-0.100000)"
fill="#000000" stroke="none">
<path d="M9372 9217 c-1083 -1279 -2277 -2730 -3712 -4512 -1124 -1397 -1469
-1816 -1728 -2106 -206 -230 -323 -328 -376 -315 -37 9 -153 141 -258 293
-180 262 -332 515 -845 1412 -465 814 -623 1072 -713 1169 -34 38 -25 39 -175
-20 -359 -141 -764 -417 -1170 -797 -132 -123 -385 -389 -385 -404 0 -48 842
-1172 1576 -2102 578 -733 1024 -1264 1259 -1500 140 -141 157 -155 250 -202
117 -59 193 -85 330 -113 126 -25 168 -25 313 0 182 32 340 81 493 155 69 32
69 32 514 600 182 231 417 528 524 660 2114 2611 4530 5008 7181 7125 168 134
306 247 308 252 2 4 -2 8 -10 8 -124 0 -701 52 -999 90 -772 98 -1608 294
-2106 495 l-83 34 -188 -222z"/>
</g>
</svg>
