<svg version="1.0" xmlns="http://www.w3.org/2000/svg" width="1706.667" height="1260" viewBox="0 0 1280 945"><path d="M937.2 23.3C828.9 151.2 709.5 296.3 566 474.5 453.6 614.2 419.1 656.1 393.2 685.1c-20.6 23-32.3 32.8-37.6 31.5-3.7-.9-15.3-14.1-25.8-29.3-18-26.2-33.2-51.5-84.5-141.2-46.5-81.4-62.3-107.2-71.3-116.9-3.4-3.8-2.5-3.9-17.5 2-35.9 14.1-76.4 41.7-117 79.7C26.3 523.2 1 549.8 1 551.3c0 4.8 84.2 117.2 157.6 210.2 57.8 73.3 102.4 126.4 125.9 150 14 14.1 15.7 15.5 25 20.2 11.7 5.9 19.3 8.5 33 11.3 12.6 2.5 16.8 2.5 31.3 0 18.2-3.2 34-8.1 49.3-15.5 6.9-3.2 6.9-3.2 51.4-60 18.2-23.1 41.7-52.8 52.4-66C738.3 540.4 979.9 300.7 1245 89c16.8-13.4 30.6-24.7 30.8-25.2.2-.4-.2-.8-1-.8-12.4 0-70.1-5.2-99.9-9-77.2-9.8-160.8-29.4-210.6-49.5L956 1.1l-18.8 22.2z"/></svg>